<svg width="134" height="18" viewBox="0 0 134 18" fill="none" xmlns="http://www.w3.org/2000/svg">
<path d="M0.164378 17C0.164378 14.312 0.164378 11.592 0.164378 8.84C0.164378 6.088 0.164378 3.368 0.164378 0.68C1.12438 0.68 2.09238 0.68 3.06838 0.68C4.04438 0.68 5.01238 0.68 5.97238 0.68C7.15638 0.68 8.24438 0.888 9.23638 1.304C10.2284 1.704 11.0924 2.272 11.8284 3.008C12.5644 3.744 13.1324 4.608 13.5324 5.6C13.9484 6.576 14.1564 7.648 14.1564 8.816C14.1564 9.984 13.9484 11.064 13.5324 12.056C13.1324 13.048 12.5644 13.92 11.8284 14.672C11.0924 15.408 10.2284 15.984 9.23638 16.4C8.24438 16.8 7.15638 17 5.97238 17C5.01238 17 4.04438 17 3.06838 17C2.09238 17 1.12438 17 0.164378 17ZM5.97238 4.472C5.71638 4.472 5.45238 4.472 5.18038 4.472C4.90838 4.472 4.63638 4.472 4.36438 4.472C4.36438 5.912 4.36438 7.368 4.36438 8.84C4.36438 10.312 4.36438 11.768 4.36438 13.208C4.63638 13.208 4.90838 13.208 5.18038 13.208C5.45238 13.208 5.71638 13.208 5.97238 13.208C6.77238 13.208 7.46838 13.016 8.06038 12.632C8.65238 12.248 9.10838 11.728 9.42838 11.072C9.74838 10.4 9.90838 9.648 9.90838 8.816C9.90838 7.984 9.74838 7.24 9.42838 6.584C9.10838 5.928 8.65238 5.416 8.06038 5.048C7.46838 4.664 6.77238 4.472 5.97238 4.472ZM17.1734 17C17.1734 14.312 17.1734 11.592 17.1734 8.84C17.1734 6.088 17.1734 3.368 17.1734 0.68C18.7894 0.68 20.4214 0.68 22.0694 0.68C23.7174 0.68 25.3494 0.68 26.9654 0.68C26.9654 1.288 26.9654 1.912 26.9654 2.552C26.9654 3.192 26.9654 3.816 26.9654 4.424C26.0374 4.424 25.1014 4.424 24.1574 4.424C23.2294 4.424 22.3014 4.424 21.3734 4.424C21.3734 4.824 21.3734 5.224 21.3734 5.624C21.3734 6.008 21.3734 6.4 21.3734 6.8C22.2214 6.8 23.0774 6.8 23.9414 6.8C24.8054 6.8 25.6534 6.8 26.4854 6.8C26.4854 7.392 26.4854 7.992 26.4854 8.6C26.4854 9.208 26.4854 9.816 26.4854 10.424C25.6534 10.424 24.8054 10.424 23.9414 10.424C23.0774 10.424 22.2214 10.424 21.3734 10.424C21.3734 10.888 21.3734 11.36 21.3734 11.84C21.3734 12.32 21.3734 12.792 21.3734 13.256C22.3014 13.256 23.2294 13.256 24.1574 13.256C25.1014 13.256 26.0374 13.256 26.9654 13.256C26.9654 13.864 26.9654 14.488 26.9654 15.128C26.9654 15.768 26.9654 16.392 26.9654 17C25.3494 17 23.7174 17 22.0694 17C20.4214 17 18.7894 17 17.1734 17ZM33.2851 0.68C33.8771 2.504 34.4611 4.344 35.0371 6.2C35.6291 8.056 36.2211 9.896 36.8131 11.72C37.4051 9.896 37.9971 8.056 38.5891 6.2C39.1811 4.344 39.7731 2.504 40.3651 0.68C41.0531 0.68 41.7491 0.68 42.4531 0.68C43.1571 0.68 43.8531 0.68 44.5411 0.68C43.6771 3.368 42.7971 6.088 41.9011 8.84C41.0211 11.592 40.1491 14.312 39.2851 17C38.4531 17 37.6131 17 36.7651 17C35.9331 17 35.1011 17 34.2691 17C33.4051 14.312 32.5251 11.592 31.6291 8.84C30.7491 6.088 29.8771 3.368 29.0131 0.68C29.7171 0.68 30.4291 0.68 31.1491 0.68C31.8691 0.68 32.5811 0.68 33.2851 0.68Z" fill="#212C0F"/>
<path d="M46.8322 17C46.8322 14.312 46.8322 11.592 46.8322 8.84C46.8322 6.088 46.8322 3.368 46.8322 0.68C47.8242 0.68 48.8162 0.68 49.8082 0.68C50.8162 0.68 51.8082 0.68 52.7842 0.68C54.0162 0.68 55.0882 0.92 56.0002 1.4C56.9122 1.864 57.6242 2.52 58.1362 3.368C58.6482 4.216 58.9042 5.208 58.9042 6.344C58.9042 7.464 58.6482 8.448 58.1362 9.296C57.6402 10.144 56.9522 10.8 56.0722 11.264C55.2082 11.728 54.2242 11.96 53.1202 11.96C52.7682 11.96 52.4162 11.96 52.0642 11.96C51.7282 11.96 51.3842 11.96 51.0322 11.96C51.0322 12.792 51.0322 13.632 51.0322 14.48C51.0322 15.328 51.0322 16.168 51.0322 17C50.3442 17 49.6482 17 48.9442 17C48.2402 17 47.5362 17 46.8322 17ZM52.7842 4.448C52.4962 4.448 52.2002 4.448 51.8962 4.448C51.6082 4.448 51.3202 4.448 51.0322 4.448C51.0322 5.088 51.0322 5.736 51.0322 6.392C51.0322 7.032 51.0322 7.672 51.0322 8.312C51.3522 8.312 51.6802 8.312 52.0162 8.312C52.3682 8.312 52.7042 8.312 53.0242 8.312C53.5202 8.312 53.9202 8.128 54.2242 7.76C54.5442 7.392 54.7042 6.936 54.7042 6.392C54.7042 5.832 54.5362 5.368 54.2002 5C53.8642 4.632 53.3922 4.448 52.7842 4.448ZM69.0508 17.384C67.8828 17.384 66.8028 17.176 65.8108 16.76C64.8188 16.328 63.9628 15.728 63.2428 14.96C62.5228 14.192 61.9628 13.288 61.5628 12.248C61.1628 11.192 60.9628 10.048 60.9628 8.816C60.9628 7.584 61.1628 6.448 61.5628 5.408C61.9628 4.368 62.5228 3.472 63.2428 2.72C63.9628 1.952 64.8188 1.36 65.8108 0.943999C66.8028 0.511999 67.8828 0.295999 69.0508 0.295999C70.2188 0.295999 71.2908 0.511999 72.2668 0.943999C73.2588 1.36 74.1148 1.952 74.8348 2.72C75.5708 3.472 76.1388 4.368 76.5388 5.408C76.9388 6.448 77.1388 7.584 77.1388 8.816C77.1388 10.048 76.9388 11.192 76.5388 12.248C76.1388 13.288 75.5708 14.192 74.8348 14.96C74.1148 15.728 73.2588 16.328 72.2668 16.76C71.2908 17.176 70.2188 17.384 69.0508 17.384ZM69.0508 13.496C69.8348 13.496 70.5068 13.304 71.0668 12.92C71.6268 12.52 72.0588 11.968 72.3628 11.264C72.6828 10.56 72.8428 9.744 72.8428 8.816C72.8428 7.888 72.6828 7.08 72.3628 6.392C72.0588 5.704 71.6268 5.168 71.0668 4.784C70.5068 4.384 69.8348 4.184 69.0508 4.184C68.2828 4.184 67.6108 4.376 67.0348 4.76C66.4748 5.144 66.0348 5.688 65.7148 6.392C65.4108 7.08 65.2588 7.888 65.2588 8.816C65.2588 9.744 65.4108 10.56 65.7148 11.264C66.0348 11.968 66.4748 12.52 67.0348 12.92C67.6108 13.304 68.2828 13.496 69.0508 13.496ZM80.1706 17C80.1706 14.312 80.1706 11.592 80.1706 8.84C80.1706 6.088 80.1706 3.368 80.1706 0.68C81.1306 0.68 82.0906 0.68 83.0506 0.68C84.0266 0.68 84.9946 0.68 85.9546 0.68C87.1706 0.68 88.2346 0.912 89.1466 1.376C90.0586 1.824 90.7626 2.464 91.2586 3.296C91.7706 4.112 92.0266 5.072 92.0266 6.176C92.0266 7.12 91.8346 7.96 91.4506 8.696C91.0666 9.432 90.5466 10.032 89.8906 10.496C90.5306 11.568 91.1706 12.656 91.8106 13.76C92.4666 14.848 93.1146 15.928 93.7546 17C92.9706 17 92.1866 17 91.4026 17C90.6186 17 89.8346 17 89.0506 17C88.5546 16.104 88.0506 15.192 87.5386 14.264C87.0426 13.336 86.5386 12.424 86.0266 11.528C85.7546 11.528 85.4746 11.528 85.1866 11.528C84.9146 11.528 84.6426 11.528 84.3706 11.528C84.3706 12.424 84.3706 13.336 84.3706 14.264C84.3706 15.192 84.3706 16.104 84.3706 17C83.6826 17 82.9866 17 82.2826 17C81.5786 17 80.8746 17 80.1706 17ZM85.9546 4.472C85.6986 4.472 85.4346 4.472 85.1626 4.472C84.9066 4.472 84.6426 4.472 84.3706 4.472C84.3706 5.064 84.3706 5.656 84.3706 6.248C84.3706 6.84 84.3706 7.432 84.3706 8.024C84.6746 8.024 84.9786 8.024 85.2826 8.024C85.5866 8.024 85.8906 8.024 86.1946 8.024C86.6746 8.024 87.0666 7.856 87.3706 7.52C87.6746 7.168 87.8266 6.744 87.8266 6.248C87.8266 5.736 87.6586 5.312 87.3226 4.976C87.0026 4.64 86.5466 4.472 85.9546 4.472ZM95.9141 17C95.9141 14.312 95.9141 11.592 95.9141 8.84C95.9141 6.088 95.9141 3.368 95.9141 0.68C97.5301 0.68 99.1621 0.68 100.81 0.68C102.458 0.68 104.09 0.68 105.706 0.68C105.706 1.288 105.706 1.912 105.706 2.552C105.706 3.192 105.706 3.816 105.706 4.424C104.778 4.424 103.842 4.424 102.898 4.424C101.97 4.424 101.042 4.424 100.114 4.424C100.114 4.824 100.114 5.224 100.114 5.624C100.114 6.008 100.114 6.4 100.114 6.8C100.962 6.8 101.818 6.8 102.682 6.8C103.546 6.8 104.394 6.8 105.226 6.8C105.226 7.392 105.226 7.992 105.226 8.6C105.226 9.208 105.226 9.816 105.226 10.424C104.394 10.424 103.546 10.424 102.682 10.424C101.818 10.424 100.962 10.424 100.114 10.424C100.114 10.888 100.114 11.36 100.114 11.84C100.114 12.32 100.114 12.792 100.114 13.256C101.042 13.256 101.97 13.256 102.898 13.256C103.842 13.256 104.778 13.256 105.706 13.256C105.706 13.864 105.706 14.488 105.706 15.128C105.706 15.768 105.706 16.392 105.706 17C104.09 17 102.458 17 100.81 17C99.1621 17 97.5301 17 95.9141 17ZM120.042 12.08C120.042 13.296 119.722 14.288 119.082 15.056C118.458 15.808 117.61 16.352 116.538 16.688C115.482 17.024 114.298 17.168 112.986 17.12C111.674 17.088 110.338 16.888 108.978 16.52C108.978 15.832 108.978 15.144 108.978 14.456C108.978 13.768 108.978 13.08 108.978 12.392C110.226 12.84 111.362 13.12 112.386 13.232C113.41 13.344 114.226 13.304 114.834 13.112C115.442 12.904 115.746 12.56 115.746 12.08C115.746 11.744 115.578 11.472 115.242 11.264C114.906 11.04 114.466 10.84 113.922 10.664C113.394 10.488 112.834 10.288 112.242 10.064C111.65 9.824 111.082 9.528 110.538 9.176C110.01 8.808 109.578 8.336 109.242 7.76C108.906 7.168 108.738 6.432 108.738 5.552C108.738 4.464 109.026 3.544 109.602 2.792C110.178 2.04 110.954 1.472 111.93 1.088C112.922 0.703999 114.042 0.511999 115.29 0.511999C116.554 0.511999 117.858 0.703999 119.202 1.088C119.202 1.776 119.202 2.464 119.202 3.152C119.202 3.84 119.202 4.528 119.202 5.216C118.082 4.736 117.05 4.448 116.106 4.352C115.178 4.24 114.434 4.288 113.874 4.496C113.314 4.688 113.034 5.008 113.034 5.456C113.034 5.776 113.202 6.04 113.538 6.248C113.874 6.456 114.306 6.648 114.834 6.824C115.378 6.984 115.946 7.184 116.538 7.424C117.13 7.648 117.69 7.952 118.218 8.336C118.762 8.704 119.202 9.192 119.538 9.8C119.874 10.392 120.042 11.152 120.042 12.08ZM125.804 17C125.804 14.936 125.804 12.856 125.804 10.76C125.804 8.648 125.804 6.56 125.804 4.496C125.196 4.496 124.58 4.496 123.956 4.496C123.332 4.496 122.716 4.496 122.108 4.496C122.108 3.872 122.108 3.24 122.108 2.6C122.108 1.944 122.108 1.304 122.108 0.68C124.012 0.68 125.94 0.68 127.892 0.68C129.844 0.68 131.772 0.68 133.676 0.68C133.676 1.304 133.676 1.944 133.676 2.6C133.676 3.24 133.676 3.872 133.676 4.496C133.084 4.496 132.476 4.496 131.852 4.496C131.228 4.496 130.612 4.496 130.004 4.496C130.004 6.56 130.004 8.648 130.004 10.76C130.004 12.856 130.004 14.936 130.004 17C129.316 17 128.62 17 127.916 17C127.212 17 126.508 17 125.804 17Z" fill="#3E5617"/>
</svg>
