<svg width="17" height="17" viewBox="0 0 17 17" fill="none" xmlns="http://www.w3.org/2000/svg">
<path d="M16.5801 0.390137H0.580078V16.3901H16.5801V0.390137Z" fill="white" fill-opacity="0.01"/>
<path fill-rule="evenodd" clip-rule="evenodd" d="M5.29652 2.14014C3.42844 2.14014 1.91406 3.67207 1.91406 5.56094C1.91406 5.60958 1.92558 5.65411 1.92761 5.70207C1.92693 5.72879 1.92016 5.74798 1.92016 5.77538C1.92016 9.36814 6.97961 14.0804 8.47638 14.6134L8.58072 14.6401L8.68507 14.6134C10.1818 14.0804 15.2413 9.36814 15.2413 5.77538C15.2413 5.74798 15.2346 5.72879 15.2339 5.70207C15.2359 5.65411 15.2474 5.60958 15.2474 5.56094C15.2474 3.67207 13.7331 2.14014 11.865 2.14014C10.3235 2.14014 9.1967 3.94478 8.58072 3.94478C7.96474 3.94478 6.838 2.14014 5.29652 2.14014Z" fill="#7c8484"/>
</svg>
