<svg width="17" height="17" viewBox="0 0 17 17" fill="none" xmlns="http://www.w3.org/2000/svg">
<path d="M16.6602 0.390137H0.660156V16.3901H16.6602V0.390137Z" fill="while" fill-opacity="0.01"/>
<path d="M8.65937 2.69019C5.52519 2.69019 0.859375 5.9591 0.859375 8.36292C0.859375 10.7667 5.52519 14.0356 8.65937 14.0356C11.7935 14.0356 16.4594 10.6887 16.4594 8.36292C16.4594 6.0371 11.7935 2.69019 8.65937 2.69019ZM8.65937 12.4472C6.40446 12.4472 4.57501 10.6178 4.57501 8.36292C4.57501 6.10801 6.40446 4.27855 8.65937 4.27855C10.9143 4.27855 12.7437 6.10801 12.7437 8.36292C12.7437 10.6178 10.9143 12.4472 8.65937 12.4472Z" fill="black"/>
<path d="M8.6601 6.00171C7.35538 6.00171 6.29883 7.05826 6.29883 8.36298C6.29883 9.66771 7.35538 10.7242 8.6601 10.7242C9.96483 10.7242 11.0214 9.66771 11.0214 8.36298C11.0214 7.05826 9.96483 6.00171 8.6601 6.00171Z" fill="black"/>
</svg>
