<svg width="32" height="32" viewBox="0 0 32 32" fill="none" xmlns="http://www.w3.org/2000/svg">
<path d="M32 0H0V32H32V0Z" fill="white" fill-opacity="0.01"/>
<path fill-rule="evenodd" clip-rule="evenodd" d="M9.43094 3.5C5.69478 3.5 2.66602 6.56386 2.66602 10.3416C2.66602 10.4389 2.68906 10.5279 2.69312 10.6239C2.69176 10.6773 2.67822 10.7157 2.67822 10.7705C2.67822 17.956 12.7971 27.3806 15.7907 28.4466L15.9993 28.5L16.208 28.4466C19.2016 27.3806 29.3204 17.956 29.3204 10.7705C29.3204 10.7157 29.307 10.6773 29.3056 10.6239C29.3096 10.5279 29.3326 10.4389 29.3326 10.3416C29.3326 6.56386 26.304 3.5 22.5678 3.5C19.4848 3.5 17.2313 7.10928 15.9993 7.10928C14.7674 7.10928 12.5139 3.5 9.43094 3.5Z" fill="white"/>
<path d="M32 0H0V32H32V0Z" fill="white" fill-opacity="0.01"/>
<path fill-rule="evenodd" clip-rule="evenodd" d="M9.43094 3.5C5.69478 3.5 2.66602 6.56386 2.66602 10.3416C2.66602 10.4389 2.68906 10.5279 2.69312 10.6239C2.69176 10.6773 2.67822 10.7157 2.67822 10.7705C2.67822 17.956 12.7971 27.3806 15.7907 28.4466L15.9993 28.5L16.208 28.4466C19.2016 27.3806 29.3204 17.956 29.3204 10.7705C29.3204 10.7157 29.307 10.6773 29.3056 10.6239C29.3096 10.5279 29.3326 10.4389 29.3326 10.3416C29.3326 6.56386 26.304 3.5 22.5678 3.5C19.4848 3.5 17.2313 7.10928 15.9993 7.10928C14.7674 7.10928 12.5139 3.5 9.43094 3.5Z" fill="#FE5F55"/>
</svg>
