<svg width="36" height="36" viewBox="0 0 36 36" fill="none" xmlns="http://www.w3.org/2000/svg">
<g clip-path="url(#clip0_2699_3138)">
<path d="M4.5 0C2.007 0 0 2.007 0 4.5V31.5C0 33.993 2.007 36 4.5 36H31.5C33.993 36 36 33.993 36 31.5V4.5C36 2.007 33.993 0 31.5 0H4.5ZM14.8245 9.375C15.7695 9.375 16.332 9.825 16.512 10.725L18.7065 23.1795C19.4035 22.2565 19.9765 21.48 20.4255 20.85C21.1718 19.7759 21.8161 18.6344 22.35 17.4405C22.958 16.1575 23.262 15.01 23.262 13.998C23.262 13.391 23.093 12.9075 22.755 12.5475C22.44 12.1655 21.8435 11.682 20.9655 11.097C21.8655 9.949 22.9905 9.375 24.3405 9.375C25.0605 9.375 25.657 9.589 26.13 10.017C26.625 10.444 26.872 11.074 26.871 11.907C26.871 13.302 26.286 15.046 25.116 17.139C23.969 19.209 21.7535 22.325 18.4695 26.487L15.129 26.721L12.5625 12.279H9.1875V10.86C10.0875 10.567 11.145 10.252 12.36 9.915C13.575 9.555 14.3965 9.375 14.8245 9.375Z" fill="#2AC65E"/>
</g>
<defs>
<clipPath id="clip0_2699_3138">
<rect width="36" height="36" fill="white"/>
</clipPath>
</defs>
</svg>
