<svg width="32" height="32" viewBox="0 0 32 32" fill="none" xmlns="http://www.w3.org/2000/svg">
<path d="M32 0H0V32H32V0Z" fill="white" fill-opacity="0.01"/>
<path d="M3.19295 10.6366L3.19338 10.6196L3.19267 10.6027C3.18977 10.5343 3.18075 10.4687 3.17528 10.429C3.17465 10.4244 3.17407 10.4202 3.17355 10.4163C3.16736 10.3705 3.16602 10.3534 3.16602 10.3416C3.16602 6.83464 5.97625 4 9.43094 4C10.7827 4 11.9965 4.79466 13.0926 5.6916C13.3167 5.87497 13.5494 6.07444 13.7759 6.26868C14.0633 6.51514 14.341 6.75318 14.5788 6.93919C14.8041 7.11536 15.0317 7.27686 15.255 7.39563C15.4741 7.51216 15.7286 7.60928 15.9993 7.60928C16.2701 7.60928 16.5246 7.51216 16.7436 7.39563C16.9669 7.27686 17.1946 7.11536 17.4199 6.93919C17.6577 6.75319 17.9353 6.51515 18.2228 6.26869C18.4493 6.07445 18.682 5.87498 18.9061 5.69161C20.0022 4.79466 21.216 4 22.5678 4C26.0225 4 28.8326 6.83462 28.8326 10.3416C28.8326 10.3535 28.8312 10.3706 28.8251 10.4165C28.8246 10.4204 28.824 10.4246 28.8233 10.4291C28.8179 10.4689 28.8089 10.5345 28.806 10.603L28.8053 10.62L28.8058 10.637C28.8073 10.6955 28.8152 10.7463 28.8185 10.7673L28.8192 10.772C28.8197 10.7753 28.8201 10.7779 28.8204 10.7799C28.8182 12.4627 28.2229 14.3137 27.2491 16.1828C26.276 18.0506 24.942 19.9041 23.5072 21.5779C22.0731 23.2509 20.5472 24.734 19.1989 25.8619C17.8479 26.9922 16.7218 27.726 16.0608 27.9682L15.9993 27.9839L15.9379 27.9682C15.2769 27.726 14.1508 26.9922 12.7998 25.8619C11.4514 24.734 9.92557 23.2509 8.49147 21.5779C7.05662 19.9041 5.72258 18.0506 4.7495 16.1828C3.77578 14.3138 3.1805 12.4629 3.17822 10.7802C3.1785 10.7783 3.17886 10.7758 3.17935 10.7726C3.17956 10.7713 3.1798 10.7697 3.18008 10.768C3.1834 10.7469 3.19145 10.6956 3.19295 10.6366Z" fill="white" stroke="#83CA2C"/>
</svg>
