<svg width="22" height="16" viewBox="0 0 22 16" fill="none" xmlns="http://www.w3.org/2000/svg">
<path d="M21.9432 2.23488C21.844 1.78074 21.6225 1.36516 21.3132 1.02184C21.248 0.947031 21.1798 0.880039 21.1059 0.813047C20.5579 0.312344 19.7887 0 18.9483 0H3.05168C2.21134 0 1.44487 0.312344 0.894223 0.813047C0.820531 0.880039 0.752383 0.947031 0.686984 1.02184C0.37748 1.36512 0.155977 1.78074 0.0595547 2.23488C0.0199375 2.41016 0 2.59129 0 2.77441V12.9241C0 13.3135 0.0908359 13.6878 0.252828 14.0258C0.40309 14.3485 0.624637 14.6404 0.89418 14.8852C0.9625 14.9472 1.03035 15.0041 1.10438 15.0608C1.6323 15.4582 2.31374 15.6983 3.05168 15.6983H18.9483C19.6865 15.6983 20.3709 15.4582 20.8958 15.0583C20.9696 15.0041 21.0378 14.9472 21.1059 14.8852C21.3754 14.6404 21.5969 14.3485 21.7502 14.0258V14.0233C21.9122 13.6853 22 13.3135 22 12.9242V2.77441C22 2.59129 21.9804 2.41016 21.9432 2.23488ZM1.99843 1.81676C2.27107 1.56918 2.63721 1.4193 3.05168 1.4193H18.9483C19.3628 1.4193 19.7322 1.56918 20.0016 1.81676C20.0498 1.86086 20.0952 1.91 20.1353 1.95883L11.8033 8.5602C11.5735 8.74328 11.2897 8.83371 11 8.83371C10.7132 8.83371 10.4295 8.74328 10.1967 8.5602L1.86794 1.95602C1.9048 1.90719 1.95022 1.86086 1.99843 1.81676ZM1.56123 12.9241V3.42473L7.59077 8.20656L1.56428 12.9833C1.56123 12.9652 1.56123 12.9448 1.56123 12.9241ZM18.9483 14.2787H3.05168C2.7818 14.2787 2.52927 14.2142 2.31374 14.1009L8.67217 9.06344L9.26578 9.53289C9.76254 9.92531 10.3842 10.1241 11 10.1241C11.619 10.1241 12.2406 9.92531 12.7373 9.53289L13.3306 9.06344L19.6866 14.1009C19.4707 14.2142 19.2182 14.2787 18.9483 14.2787ZM20.4388 12.9241C20.4388 12.9448 20.4388 12.9652 20.4359 12.9833L14.4094 8.20934L20.4388 3.42727V12.9241Z" fill="#201E50"/>
</svg>
