<svg width="160" height="160" viewBox="0 0 160 160" fill="none" xmlns="http://www.w3.org/2000/svg">
<rect width="160" height="160" fill="white" fill-opacity="0.01"/>
<path d="M25.0247 75.8604C25.0247 75.8604 7.55925 96.5561 21.2224 111.557L38.9771 98.7278L25.0247 75.8604Z" fill="url(#paint0_linear_635_32829)"/>
<path d="M82.4758 141.498C116.455 141.498 144 113.964 144 79.9989C144 46.034 116.455 18.5 82.4758 18.5C48.497 18.5 20.9517 46.034 20.9517 79.9989C20.9517 113.964 48.497 141.498 82.4758 141.498Z" fill="url(#paint1_linear_635_32829)"/>
<path d="M118.123 81.8363C116.302 79.9314 113.851 78.8527 111.222 78.7954C108.591 78.738 106.097 79.7105 104.196 81.5351C97.542 87.9211 91.7412 92.4367 85.9346 95.7445C83.6469 97.0469 82.0035 99.1641 81.3077 101.706C80.6091 104.248 80.9412 106.91 82.244 109.202C83.9905 112.28 87.2746 114.194 90.8135 114.194C92.5114 114.194 94.1921 113.746 95.6752 112.903C102.931 108.769 109.968 103.333 117.825 95.7904C121.747 92.0264 121.882 85.7666 118.125 81.8363H118.123Z" fill="url(#paint2_linear_635_32829)"/>
<path opacity="0.7" d="M103.535 137.774C71.6056 149.392 36.299 132.934 24.677 101.018C13.055 69.1017 29.5191 33.8096 61.4484 22.1924" fill="url(#paint3_linear_635_32829)"/>
<path d="M55.2345 81.8363C53.4135 79.9314 50.9626 78.8527 48.3342 78.7954C45.7029 78.738 43.209 79.7105 41.3079 81.5351C34.6538 87.9211 28.853 92.4367 23.0464 95.7445C20.7587 97.0469 19.1153 99.1641 18.4195 101.706C17.7209 104.248 18.053 106.91 19.3558 109.202C21.1023 112.28 24.3864 114.194 27.9253 114.194C29.6232 114.194 31.3039 113.746 32.787 112.903C40.0424 108.769 47.0801 103.333 54.9367 95.7904C58.8593 92.0264 58.9938 85.7666 55.2373 81.8363H55.2345Z" fill="url(#paint4_linear_635_32829)"/>
<path d="M53.1049 62.8353C52.6596 62.8353 52.1614 62.4571 51.7577 62.5862C51.354 62.7154 51.1625 63.3264 50.8165 63.5801C50.4704 63.8337 49.836 63.8199 49.5823 64.1704C49.3285 64.5209 49.5362 65.1112 49.4 65.5263C49.2639 65.9413 48.7495 66.2849 48.7495 66.73C48.7495 67.175 49.2709 67.5324 49.4 67.9337C49.5292 68.3349 49.3285 68.9437 49.5823 69.2895C49.836 69.6354 50.4681 69.6239 50.8165 69.8799C51.1648 70.1358 51.3424 70.7377 51.7577 70.8737C52.1729 71.0098 52.6596 70.6247 53.1049 70.6247C53.5501 70.6247 54.0484 71.0028 54.4521 70.8737C54.8558 70.7446 55.0473 70.1335 55.3933 69.8799C55.7393 69.6262 56.3737 69.64 56.6275 69.2895C56.8812 68.939 56.6736 68.3487 56.8097 67.9337C56.9458 67.5186 57.4602 67.175 57.4602 66.73C57.4602 66.2849 56.9389 65.9275 56.8097 65.5263C56.6805 65.1251 56.8812 64.5163 56.6275 64.1704C56.3737 63.8245 55.7416 63.836 55.3933 63.5801C55.045 63.3241 54.8673 62.7223 54.4521 62.5862C54.0368 62.4502 53.5501 62.8353 53.1049 62.8353Z" fill="white"/>
<path d="M72.7065 62.8354C72.252 62.8354 71.7445 62.4572 71.3339 62.5909C70.9233 62.7247 70.7226 63.3381 70.3696 63.5963C70.0167 63.8546 69.3754 63.8477 69.117 64.2051C68.8586 64.5625 69.0616 65.1597 68.9232 65.584C68.7848 66.0083 68.2681 66.3588 68.2681 66.8131C68.2681 67.2673 68.7894 67.6317 68.9232 68.0421C69.057 68.4526 68.8586 69.0683 69.117 69.4211C69.3754 69.7739 70.0144 69.7693 70.3696 70.0298C70.7249 70.2904 70.9094 70.8969 71.3339 71.0352C71.7584 71.1736 72.252 70.7908 72.7065 70.7908C73.1609 70.7908 73.6684 71.169 74.0791 71.0352C74.4897 70.9015 74.6904 70.2881 75.0433 70.0298C75.3963 69.7716 76.0376 69.7785 76.296 69.4211C76.5543 69.0637 76.3513 68.4664 76.4897 68.0421C76.6282 67.6178 77.1449 67.2673 77.1449 66.8131C77.1449 66.3588 76.6235 65.9945 76.4897 65.584C76.3559 65.1736 76.5543 64.5579 76.296 64.2051C76.0376 63.8523 75.3986 63.8569 75.0433 63.5963C74.6881 63.3357 74.5035 62.7293 74.0791 62.5909C73.6546 62.4526 73.1609 62.8354 72.7065 62.8354Z" fill="white"/>
<path d="M60.2234 52.545C59.8128 52.3467 59.3491 52.319 58.92 52.4666C58.8531 52.4897 52.0294 54.8302 44.5367 55.8632C43.6047 55.9924 42.9519 56.8548 43.0788 57.7864C43.1941 58.6257 43.9208 59.2598 44.7674 59.2598C44.8458 59.2598 44.9242 59.2552 45.0027 59.2437C52.8207 58.1668 59.7436 55.7917 60.0342 55.6903C60.9224 55.3836 61.3953 54.4082 61.0885 53.5204C60.9385 53.0892 60.6317 52.7433 60.2211 52.5427L60.2234 52.545Z" fill="white"/>
<path d="M82.2423 56.0754C74.7496 55.0423 67.9282 52.7018 67.859 52.6787C67.4276 52.5289 66.964 52.5565 66.5556 52.7571C66.145 52.9555 65.8382 53.3036 65.6883 53.7349C65.3814 54.6226 65.8543 55.5957 66.7425 55.9047C67.0332 56.0062 73.9468 58.379 81.7763 59.4581C81.8525 59.4674 81.9309 59.4743 82.0093 59.4743C82.856 59.4743 83.5826 58.8402 83.698 58.0008C83.8272 57.0692 83.172 56.2068 82.24 56.0777L82.2423 56.0754Z" fill="white"/>
<path d="M78.0027 76.4101C77.6156 75.8388 76.9597 75.25 76.25 75.25C75.5403 75.25 74.8817 75.8413 74.4973 76.4101C72.5 79.3528 72.5 80.4424 72.5 80.7989C72.5 82.839 74.1828 85 76.25 85C78.3172 85 80 82.839 80 80.7989C80 80.1795 79.793 79.052 78.0027 76.4101Z" fill="white"/>
<defs>
<linearGradient id="paint0_linear_635_32829" x1="15.9999" y1="93.7103" x2="38.9771" y2="93.7103" gradientUnits="userSpaceOnUse">
<stop offset="0.3" stop-color="#86E3E8"/>
<stop offset="0.87" stop-color="#00CFD9"/>
</linearGradient>
<linearGradient id="paint1_linear_635_32829" x1="7.13353" y1="24.1449" x2="133.794" y2="118.122" gradientUnits="userSpaceOnUse">
<stop offset="0.3" stop-color="#86E3E8"/>
<stop offset="0.85" stop-color="#00CFD9"/>
</linearGradient>
<linearGradient id="paint2_linear_635_32829" x1="87.3204" y1="108.121" x2="132.893" y2="70.0018" gradientUnits="userSpaceOnUse">
<stop offset="0.3" stop-color="#86E3E8"/>
<stop offset="0.87" stop-color="#00CFD9"/>
</linearGradient>
<linearGradient id="paint3_linear_635_32829" x1="75.096" y1="83.5438" x2="17.5" y2="113.743" gradientUnits="userSpaceOnUse">
<stop offset="0.44" stop-color="#86E3E8" stop-opacity="0"/>
<stop offset="0.81" stop-color="#C8F2F5"/>
</linearGradient>
<linearGradient id="paint4_linear_635_32829" x1="45.6429" y1="89.3259" x2="12.8961" y2="113.209" gradientUnits="userSpaceOnUse">
<stop stop-color="#86E3E8"/>
<stop offset="0.87" stop-color="#18DBE4"/>
</linearGradient>
</defs>
</svg>
