<svg width="34" height="39" viewBox="0 0 34 39" fill="none" xmlns="http://www.w3.org/2000/svg">
<path fill-rule="evenodd" clip-rule="evenodd" d="M0 3.9C0 1.74609 1.74608 0 3.9 0H25.2385L33.8 8.56151V35.1C33.8 37.2538 32.0538 39 29.9 39H3.9C1.74608 39 0 37.2538 0 35.1V3.9ZM6.5 15.6H2.6V28.6H5.2V23.4H6.5C8.65392 23.4 10.4 21.6539 10.4 19.5C10.4 17.3461 8.65392 15.6 6.5 15.6ZM16.9 15.6H13V28.6H16.9C19.0539 28.6 20.8 26.8538 20.8 24.7V19.5C20.8 17.3461 19.0539 15.6 16.9 15.6ZM23.4 28.6V15.6H31.2V18.2H26V20.8H28.6V23.4H26V28.6H23.4Z" fill="white"/>
</svg>
