<svg width="19" height="19" viewBox="0 0 19 19" fill="none" xmlns="http://www.w3.org/2000/svg">
<path d="M7.83269 10.6527C8.24269 11.0427 8.24269 11.6827 7.83269 12.0727C7.44269 12.4627 6.80269 12.4627 6.41269 12.0727C5.47607 11.1347 4.95 9.86327 4.95 8.53769C4.95 7.21211 5.47607 5.94072 6.41269 5.00269L9.95269 1.46269C10.8907 0.52607 12.1621 0 13.4877 0C14.8133 0 16.0847 0.52607 17.0227 1.46269C17.9593 2.40072 18.4854 3.67211 18.4854 4.99769C18.4854 6.32327 17.9593 7.59466 17.0227 8.53269L15.5327 10.0227C15.5427 9.20269 15.4127 8.38269 15.1327 7.60269L15.6027 7.12269C15.8833 6.84552 16.106 6.5154 16.2581 6.15148C16.4101 5.78757 16.4884 5.39709 16.4884 5.00269C16.4884 4.60829 16.4101 4.21781 16.2581 3.8539C16.106 3.48998 15.8833 3.15987 15.6027 2.88269C15.3255 2.60211 14.9954 2.37934 14.6315 2.2273C14.2676 2.07526 13.8771 1.99697 13.4827 1.99697C13.0883 1.99697 12.6978 2.07526 12.3339 2.2273C11.97 2.37934 11.6399 2.60211 11.3627 2.88269L7.83269 6.41269C7.55211 6.68987 7.32934 7.01998 7.1773 7.3839C7.02526 7.74781 6.94697 8.13829 6.94697 8.53269C6.94697 8.92709 7.02526 9.31757 7.1773 9.68148C7.32934 10.0454 7.55211 10.3755 7.83269 10.6527ZM10.6527 6.41269C11.0427 6.02269 11.6827 6.02269 12.0727 6.41269C13.0093 7.35072 13.5354 8.62211 13.5354 9.94769C13.5354 11.2733 13.0093 12.5447 12.0727 13.4827L8.53269 17.0227C7.59466 17.9593 6.32327 18.4854 4.99769 18.4854C3.67211 18.4854 2.40072 17.9593 1.46269 17.0227C0.52607 16.0847 0 14.8133 0 13.4877C0 12.1621 0.52607 10.8907 1.46269 9.95269L2.95269 8.46269C2.94269 9.28269 3.07269 10.1027 3.35269 10.8927L2.88269 11.3627C2.60211 11.6399 2.37934 11.97 2.2273 12.3339C2.07526 12.6978 1.99697 13.0883 1.99697 13.4827C1.99697 13.8771 2.07526 14.2676 2.2273 14.6315C2.37934 14.9954 2.60211 15.3255 2.88269 15.6027C3.15987 15.8833 3.48998 16.106 3.8539 16.2581C4.21781 16.4101 4.60829 16.4884 5.00269 16.4884C5.39709 16.4884 5.78757 16.4101 6.15148 16.2581C6.5154 16.106 6.84552 15.8833 7.12269 15.6027L10.6527 12.0727C10.9333 11.7955 11.156 11.4654 11.3081 11.1015C11.4601 10.7376 11.5384 10.3471 11.5384 9.95269C11.5384 9.55829 11.4601 9.16781 11.3081 8.8039C11.156 8.43998 10.9333 8.10987 10.6527 7.83269C10.5556 7.74168 10.4782 7.63172 10.4252 7.5096C10.3723 7.38747 10.345 7.25579 10.345 7.12269C10.345 6.98959 10.3723 6.85791 10.4252 6.73579C10.4782 6.61367 10.5556 6.5037 10.6527 6.41269Z" fill="#201E50"/>
</svg>
