<svg width="338" height="338" viewBox="0 0 338 338" fill="none" xmlns="http://www.w3.org/2000/svg">
<rect width="338" height="338" rx="8" fill="#D9D9D9"/>
<path d="M160.448 84.8228C155.451 86.8866 154.34 87.601 151.564 90.3793C149.898 92.0462 148.55 93.8719 148.55 94.5863C148.55 95.2213 148.233 95.777 147.757 95.777C147.36 95.777 146.964 96.2533 146.964 96.7295C146.964 97.2852 146.567 99.1109 146.091 100.698L145.298 103.715H140.142C129.989 103.715 121.898 110.144 119.36 120.305C118.408 124.115 119.439 130.783 121.343 133.085C121.819 133.72 123.564 135.863 125.15 137.768L128.006 141.261L124.833 144.515C123.009 146.341 121.581 148.246 121.581 148.722C121.581 149.199 121.184 149.754 120.629 149.913C119.994 150.151 119.677 152.533 119.598 157.375C119.598 163.566 119.836 164.757 121.501 167.218C126.023 173.727 128.72 175.711 135.779 177.537C140.935 178.886 147.915 177.06 152.04 173.25C154.023 171.504 160.369 168.488 161.003 169.043C161.321 169.44 161.4 174.838 161.241 184.681V187.062H155.847C149.898 187.062 146.964 188.412 146.964 191.19C146.964 194.603 148.788 194.921 165.683 195C180.12 195 181.706 194.841 182.896 193.571C186.307 189.84 183.134 187.062 175.36 187.062C171.632 187.062 169.967 186.745 169.887 186.03C169.729 183.728 170.125 169.202 170.363 168.964C170.839 168.488 177.423 171.742 179.089 173.25C181.151 175.235 183.769 176.425 188.131 177.537C195.191 179.362 203.995 175.394 208.993 168.17C211.531 164.598 211.61 164.122 211.531 157.295C211.452 152.771 211.134 150.151 210.5 149.913C210.024 149.754 209.627 149.199 209.627 148.722C209.627 148.246 208.199 146.341 206.375 144.515L203.202 141.261L206.058 137.768C207.644 135.863 209.389 133.72 209.865 133.085C212.959 129.275 212.641 119.352 209.231 114.193C204.392 106.731 199.236 103.715 191.066 103.715H185.989L184.958 99.7459C184.403 97.5233 183.689 95.777 183.293 95.777C182.975 95.777 182.658 95.2213 182.658 94.5863C182.658 93.0781 177.423 87.7598 174.726 86.5691C168.618 83.8702 164.097 83.3146 160.448 84.8228ZM169.808 92.3637C172.108 92.9194 176.55 97.1264 177.74 99.9841C178.295 101.175 178.692 104.35 178.692 106.969C178.692 110.065 179.089 112.129 179.802 112.923C181.151 114.193 183.451 114.431 183.451 113.24C183.451 112.764 184.641 112.446 186.148 112.446C187.655 112.446 189.162 112.05 189.4 111.653C190.828 109.271 198.522 111.732 202.012 115.701C204.075 118.003 204.313 118.797 204.233 123.877C204.233 127.211 203.837 129.592 203.361 129.751C202.885 129.91 202.488 130.386 202.488 130.862C202.488 131.815 201.14 133.164 198.443 134.99C196.222 136.419 195.746 136.498 189.4 137.371C185.117 138.006 181.072 139.435 181.072 140.388C181.072 140.785 180.675 141.023 180.199 141.023C179.247 141.023 177.899 142.372 176.63 144.674C175.995 145.785 175.995 146.42 176.63 147.055C178.613 148.881 179.644 148.961 183.213 147.214C187.179 145.388 196.936 144.357 196.936 145.865C196.936 146.262 197.412 146.579 197.967 146.579C198.602 146.579 200.188 147.849 201.616 149.357C203.995 151.977 204.154 152.612 204.154 157.772C204.154 163.249 204.154 163.407 200.823 166.662C197.65 169.837 197.332 169.996 192.573 169.996C187.814 169.996 184.562 168.964 181.706 166.424C180.278 165.154 176.788 163.249 172.584 161.502C170.284 160.629 169.967 160.074 169.967 157.533C169.967 155.073 170.205 154.676 171.394 155.073C172.108 155.39 172.902 155.787 173.139 156.025C173.536 156.501 176.154 158.01 179.882 159.994C181.151 160.709 182.42 161.502 182.658 161.74C183.61 163.011 189.083 165.551 190.035 165.233C191.939 164.439 193.049 161.82 192.097 160.312C191.145 158.803 186.148 155.311 184.958 155.311C184.562 155.311 184.244 154.914 184.244 154.517C184.244 154.041 183.848 153.723 183.451 153.723C182.975 153.723 180.596 152.453 178.216 150.945C175.836 149.437 173.536 148.167 173.139 148.167C172.664 148.167 172.346 147.77 172.346 147.373C172.346 146.897 171.791 146.579 171.156 146.579C170.205 146.579 169.967 145.547 169.967 141.816C169.967 139.038 170.284 137.054 170.839 137.054C171.236 137.054 173.695 135.704 176.154 133.958C178.613 132.291 181.468 130.703 182.499 130.386C183.451 130.068 184.244 129.433 184.244 129.037C184.244 128.64 184.8 128.322 185.434 128.322C186.069 128.322 186.624 127.925 186.624 127.528C186.624 127.052 187.1 126.735 187.655 126.735C189.559 126.735 193.128 122.924 192.652 121.416C191.859 118.955 189.48 117.924 187.1 119.035C185.989 119.591 185.038 120.226 185.038 120.543C185.038 120.94 184.482 121.178 183.848 121.178C183.213 121.178 182.658 121.496 182.658 121.813C182.658 122.131 181.706 122.845 180.516 123.321C178.137 124.274 173.774 126.814 173.139 127.608C172.902 127.846 172.108 128.243 171.394 128.56C170.046 129.037 169.967 128.084 169.967 115.78C169.887 101.254 169.491 99.7459 165.604 99.7459C161.717 99.7459 161.321 101.254 161.241 115.78C161.241 123.48 160.924 129.116 160.527 129.116C160.131 129.116 159.258 128.56 158.544 127.925C157.91 127.29 157.037 126.735 156.561 126.735C156.085 126.735 155.689 126.417 155.689 126.02C155.689 125.623 155.054 125.147 154.34 124.909C152.913 124.433 146.884 121.099 146.17 120.384C144.425 118.638 142.125 118.082 140.618 118.955C137.921 120.622 137.842 122.686 140.38 124.829C141.57 125.861 143.077 126.735 143.632 126.735C144.108 126.735 144.584 127.052 144.584 127.528C144.584 127.925 145.139 128.322 145.774 128.322C146.408 128.322 146.964 128.56 146.964 128.878C146.964 129.275 148.391 130.227 150.136 131.021C151.881 131.815 153.864 133.085 154.658 133.879C155.451 134.593 157.275 135.704 158.703 136.26C161.162 137.371 161.241 137.609 161.241 141.975C161.241 145.547 161.003 146.579 160.052 146.579C159.417 146.579 158.862 146.897 158.862 147.373C158.862 147.77 158.544 148.167 158.068 148.167C157.672 148.167 155.372 149.437 152.992 150.945C150.612 152.453 148.233 153.723 147.757 153.723C147.36 153.723 146.964 154.041 146.964 154.517C146.964 154.914 146.646 155.311 146.25 155.311C145.06 155.311 140.063 158.803 139.111 160.312C138.08 161.899 139.031 164.36 141.014 165.074C142.125 165.551 148.55 162.614 148.55 161.661C148.55 161.423 150.136 160.55 152.119 159.677C154.102 158.803 155.689 157.851 155.689 157.454C155.689 157.137 156.244 156.898 156.879 156.898C157.513 156.898 158.068 156.501 158.068 156.105C158.068 155.628 158.544 155.311 159.179 155.311C159.814 155.311 160.527 154.835 160.686 154.279C160.924 153.803 161.162 154.914 161.162 156.898C161.241 160.232 161.083 160.55 158.703 161.502C154.182 163.328 150.85 165.154 149.343 166.583C148.471 167.376 147.439 168.011 146.964 168.011C146.567 168.011 146.17 168.329 146.17 168.726C146.17 169.281 141.014 170.472 138.635 170.472C135.779 170.393 132.686 168.964 130.068 166.344C127.133 163.407 127.054 163.169 127.054 157.772C127.054 152.85 127.292 151.898 129.116 149.992C130.227 148.802 131.099 147.532 131.099 147.214C131.099 146.817 131.813 146.579 132.606 146.579C133.479 146.579 134.431 146.182 134.669 145.785C135.779 143.96 146.17 145.309 147.757 147.532C148.788 148.961 152.278 148.961 153.864 147.611C155.213 146.42 155.372 145.865 154.658 144.595C153.468 142.451 152.04 141.023 151.009 141.023C150.533 141.023 150.136 140.785 150.136 140.388C150.136 139.356 145.853 137.927 141.014 137.371C138.397 137.054 135.383 136.419 134.272 135.863C131.575 134.514 128.72 131.894 128.72 130.862C128.72 130.386 128.323 129.91 127.847 129.751C127.213 129.513 126.895 127.37 126.895 123.798C126.895 118.797 127.133 117.924 129.037 115.939C130.147 114.669 131.099 113.478 131.099 113.24C131.099 113.002 132.765 112.288 134.748 111.732C137.683 110.859 139.031 110.859 141.014 111.494C142.363 112.05 144.267 112.446 145.218 112.446C146.091 112.446 147.122 112.764 147.36 113.24C148.074 114.352 150.057 114.193 151.406 112.923C152.119 112.208 152.516 110.065 152.516 107.049C152.516 101.254 154.102 97.2058 157.275 94.8245C160.448 92.5225 164.414 91.0937 166.397 91.5699C167.27 91.7287 168.777 92.1256 169.808 92.3637Z" fill="#F8F8F8" fill-opacity="0.6"/>
<path d="M129.586 219.031V236H126.539L119.086 225.219H118.945V236H115.43V219.031H118.523L125.93 229.812H126.094V219.031H129.586ZM138.814 236.258C134.97 236.258 132.579 233.609 132.579 229.672C132.579 225.734 134.97 223.109 138.814 223.109C142.657 223.109 145.072 225.734 145.072 229.672C145.072 233.609 142.657 236.258 138.814 236.258ZM138.837 233.562C140.618 233.562 141.532 231.898 141.532 229.672C141.532 227.422 140.618 225.758 138.837 225.758C137.032 225.758 136.095 227.422 136.095 229.672C136.095 231.898 137.032 233.562 138.837 233.562ZM157.808 219.031V236H154.293V219.031H157.808ZM161.318 236V223.273H164.622V225.5H164.763C165.302 224.023 166.591 223.109 168.302 223.109C170.06 223.109 171.349 224.023 171.771 225.5H171.888C172.427 224.047 173.857 223.109 175.732 223.109C178.099 223.109 179.739 224.68 179.739 227.445V236H176.271V228.125C176.271 226.672 175.427 225.969 174.278 225.969C172.966 225.969 172.216 226.883 172.216 228.219V236H168.841V228.031C168.841 226.766 168.044 225.969 166.872 225.969C165.7 225.969 164.786 226.906 164.786 228.359V236H161.318ZM182.522 232.438C182.522 229.602 184.819 228.664 187.256 228.523C188.17 228.465 189.881 228.383 190.42 228.359V227.328C190.397 226.273 189.67 225.641 188.381 225.641C187.209 225.641 186.459 226.18 186.272 227.047H182.967C183.178 224.844 185.1 223.109 188.475 223.109C191.241 223.109 193.866 224.352 193.866 227.422V236H190.584V234.242H190.491C189.858 235.414 188.662 236.234 186.764 236.234C184.327 236.234 182.522 234.969 182.522 232.438ZM185.85 232.344C185.85 233.328 186.647 233.844 187.748 233.844C189.319 233.844 190.444 232.789 190.42 231.453V230.516C189.893 230.539 188.416 230.621 187.819 230.68C186.623 230.797 185.85 231.359 185.85 232.344ZM202.953 241.039C199.437 241.039 197.281 239.469 197.07 237.055H200.492C200.679 238.062 201.64 238.531 203.023 238.531C204.64 238.531 205.718 237.852 205.718 236.07V233.75H205.554C205.086 234.781 203.961 235.812 201.922 235.812C199.039 235.812 196.742 233.797 196.742 229.555C196.742 225.242 199.109 223.109 201.922 223.109C204.054 223.109 205.086 224.375 205.554 225.406H205.695V223.273H209.14V236.141C209.14 239.375 206.562 241.039 202.953 241.039ZM203 233.211C204.734 233.211 205.718 231.852 205.718 229.602C205.718 227.328 204.734 225.875 203 225.875C201.242 225.875 200.304 227.398 200.304 229.602C200.304 231.805 201.242 233.211 203 233.211ZM218.321 236.258C214.431 236.258 212.04 233.727 212.04 229.695C212.04 225.758 214.454 223.109 218.181 223.109C221.532 223.109 224.157 225.219 224.157 229.555V230.539H215.462C215.462 232.461 216.61 233.656 218.392 233.656C219.563 233.656 220.407 233.141 220.759 232.367H224.063C223.571 234.711 221.462 236.258 218.321 236.258ZM215.462 228.359H220.876C220.876 226.812 219.798 225.711 218.251 225.711C216.657 225.711 215.52 226.895 215.462 228.359Z" fill="#F8F8F8" fill-opacity="0.6"/>
</svg>
