<svg width="14" height="12" viewBox="0 0 14 12" fill="none" xmlns="http://www.w3.org/2000/svg">
<path d="M13.9639 2.06979C13.9007 1.75189 13.7598 1.46098 13.5629 1.22066C13.5214 1.16829 13.4781 1.1214 13.4311 1.0745C13.0823 0.724012 12.5928 0.505371 12.058 0.505371H1.94198C1.40722 0.505371 0.919461 0.724012 0.569051 1.0745C0.522156 1.1214 0.478789 1.16829 0.437172 1.22066C0.240215 1.46095 0.0992578 1.75189 0.0378984 2.06979C0.0126875 2.19248 0 2.31927 0 2.44746V9.55227C0 9.82483 0.0578047 10.0868 0.160891 10.3234C0.256512 10.5493 0.397496 10.7537 0.569023 10.925C0.6125 10.9684 0.655676 11.0083 0.702789 11.0479C1.03873 11.3261 1.47238 11.4942 1.94198 11.4942H12.058C12.5278 11.4942 12.9633 11.3261 13.2973 11.0462C13.3443 11.0083 13.3877 10.9684 13.4311 10.925C13.6025 10.7537 13.7435 10.5493 13.8411 10.3234V10.3217C13.9441 10.0851 14 9.82483 14 9.5523V2.44746C14 2.31927 13.9875 2.19248 13.9639 2.06979ZM1.27173 1.7771C1.44523 1.6038 1.67822 1.49888 1.94198 1.49888H12.058C12.3218 1.49888 12.5568 1.6038 12.7283 1.7771C12.7589 1.80797 12.7879 1.84237 12.8134 1.87655L7.51122 6.49751C7.36498 6.62567 7.18435 6.68897 7 6.68897C6.81751 6.68897 6.63698 6.62567 6.48881 6.49751L1.18869 1.87458C1.21215 1.8404 1.24105 1.80797 1.27173 1.7771ZM0.993508 9.55227V2.90268L4.83049 6.24996L0.995449 9.59369C0.993508 9.58101 0.993508 9.56673 0.993508 9.55227ZM12.058 10.5005H1.94198C1.77023 10.5005 1.60954 10.4553 1.47238 10.376L5.51865 6.84978L5.89641 7.17839C6.21253 7.45309 6.60811 7.59221 7 7.59221C7.39391 7.59221 7.78947 7.45309 8.10556 7.17839L8.48312 6.84978L12.5278 10.376C12.3905 10.4553 12.2298 10.5005 12.058 10.5005ZM13.0065 9.55227C13.0065 9.56673 13.0065 9.58101 13.0046 9.59369L9.16962 6.25191L13.0065 2.90446V9.55227Z" fill="#525B76"/>
</svg>
