<svg width="14" height="14" viewBox="0 0 14 14" fill="none" xmlns="http://www.w3.org/2000/svg">
<path fill-rule="evenodd" clip-rule="evenodd" d="M8.63042 1.1665H5.36958C4.71917 1.1665 4.4835 1.23417 4.24608 1.36134C4.01122 1.48567 3.81916 1.67773 3.69483 1.91259C3.56767 2.15 3.5 2.38567 3.5 3.03609V10.9636C3.5 11.6134 3.56767 11.8497 3.69483 12.0871C3.822 12.3245 4.00867 12.5112 4.24608 12.6383C4.4835 12.7655 4.71917 12.8332 5.36958 12.8332H8.63042C9.28025 12.8332 9.5165 12.7655 9.75392 12.6383C9.99133 12.5112 10.178 12.3245 10.3052 12.0871C10.4323 11.8497 10.5 11.614 10.5 10.9636V3.03609C10.5 2.38567 10.4323 2.15 10.3052 1.91259C10.1808 1.67773 9.98878 1.48567 9.75392 1.36134C9.5165 1.23417 9.28083 1.1665 8.63042 1.1665ZM4.66667 10.4969V3.50275H9.33333V10.4969H4.66667Z" fill="#525B76"/>
</svg>
