<svg width="39" height="39" viewBox="0 0 39 39" fill="none" xmlns="http://www.w3.org/2000/svg">
<path d="M27.625 35.75C26.2708 35.75 25.1198 35.276 24.1719 34.3281C23.224 33.3802 22.75 32.2292 22.75 30.875C22.75 30.7125 22.7906 30.3333 22.8719 29.7375L11.4563 23.075C11.0229 23.4812 10.5219 23.7998 9.95312 24.0305C9.38438 24.2612 8.775 24.3761 8.125 24.375C6.77083 24.375 5.61979 23.901 4.67188 22.9531C3.72396 22.0052 3.25 20.8542 3.25 19.5C3.25 18.1458 3.72396 16.9948 4.67188 16.0469C5.61979 15.099 6.77083 14.625 8.125 14.625C8.775 14.625 9.38438 14.7404 9.95312 14.9711C10.5219 15.2019 11.0229 15.5198 11.4563 15.925L22.8719 9.2625C22.8177 9.07292 22.7841 8.89037 22.7711 8.71487C22.7581 8.53937 22.7511 8.34275 22.75 8.125C22.75 6.77083 23.224 5.61979 24.1719 4.67188C25.1198 3.72396 26.2708 3.25 27.625 3.25C28.9792 3.25 30.1302 3.72396 31.0781 4.67188C32.026 5.61979 32.5 6.77083 32.5 8.125C32.5 9.47917 32.026 10.6302 31.0781 11.5781C30.1302 12.526 28.9792 13 27.625 13C26.975 13 26.3656 12.8846 25.7969 12.6539C25.2281 12.4231 24.7271 12.1052 24.2937 11.7L12.8781 18.3625C12.9323 18.5521 12.9664 18.7352 12.9805 18.9117C12.9946 19.0883 13.0011 19.2844 13 19.5C12.9989 19.7156 12.9924 19.9122 12.9805 20.0899C12.9686 20.2675 12.9345 20.4501 12.8781 20.6375L24.2937 27.3C24.7271 26.8937 25.2281 26.5758 25.7969 26.3461C26.3656 26.1165 26.975 26.0011 27.625 26C28.9792 26 30.1302 26.474 31.0781 27.4219C32.026 28.3698 32.5 29.5208 32.5 30.875C32.5 32.2292 32.026 33.3802 31.0781 34.3281C30.1302 35.276 28.9792 35.75 27.625 35.75Z" fill="white"/>
</svg>
